<?xml version="1.0" standalone="no"?>
<!DOCTYPE svg PUBLIC "-//W3C//DTD SVG 20010904//EN"
 "http://www.w3.org/TR/2001/REC-SVG-20010904/DTD/svg10.dtd">
<svg version="1.0" xmlns="http://www.w3.org/2000/svg"
 width="512.000000pt" height="512.000000pt" viewBox="0 0 512.000000 512.000000"
 preserveAspectRatio="xMidYMid meet">
<metadata>
Created by potrace 1.11, written by Peter Selinger 2001-2013
</metadata>
<g transform="translate(0.000000,512.000000) scale(0.100000,-0.100000)"
fill="#000000" stroke="none">
<path d="M742 4587 c-86 -30 -152 -90 -194 -174 l-33 -68 -3 -1035 c-3 -1397
-3 -2338 2 -2446 6 -154 67 -254 193 -316 l68 -33 1765 -2 c1606 -2 1770 -1
1820 14 120 35 208 126 239 247 7 25 10 652 10 1800 l0 1761 -35 72 c-39 82
-102 144 -181 177 -48 21 -54 21 -1818 23 l-1770 2 -63 -22z m1303 -663 l0
-169 -53 -7 c-132 -19 -254 -136 -279 -267 -2 -14 -6 -134 -7 -266 -4 -269
-13 -330 -73 -444 -39 -75 -104 -163 -142 -190 l-26 -19 26 -21 c62 -48 151
-188 182 -286 27 -83 29 -101 32 -350 2 -132 6 -253 9 -269 8 -47 54 -131 89
-166 44 -44 123 -88 171 -95 83 -13 77 3 74 -183 l-3 -167 -35 2 c-31 1 -107
12 -135 19 -5 1 -37 12 -70 25 -205 77 -360 251 -416 468 -17 64 -21 116 -23
326 -4 267 -7 290 -59 372 -47 74 -144 134 -237 148 l-46 7 0 168 -1 168 50 6
c115 16 225 104 269 216 19 50 21 77 23 285 3 254 8 311 35 389 85 249 302
430 555 464 98 13 90 27 90 -164z m1169 156 c159 -33 325 -143 418 -277 37
-55 89 -164 82 -175 -3 -4 -1 -8 4 -8 5 0 13 -19 17 -42 4 -24 10 -50 12 -58
2 -8 5 -127 7 -265 3 -225 6 -255 25 -305 46 -122 170 -212 301 -219 13 -1 15
-26 15 -170 l0 -168 -57 -11 c-133 -25 -215 -97 -269 -237 -7 -19 -13 -122
-14 -280 -2 -139 -8 -272 -15 -300 -14 -61 -58 -175 -76 -196 -8 -8 -14 -19
-14 -23 0 -9 -56 -80 -94 -118 -113 -114 -281 -191 -444 -202 l-42 -2 2 169
c3 161 4 170 23 173 97 14 146 36 211 96 44 41 90 120 100 174 3 16 7 137 8
269 2 134 8 261 14 287 29 116 90 230 170 316 l48 52 -51 54 c-63 69 -110 146
-140 233 -35 101 -37 118 -40 370 -3 262 -6 289 -43 356 -51 94 -171 175 -267
180 l-30 2 -2 160 c-2 88 -1 165 1 171 5 12 61 10 140 -6z"/>
</g>
</svg>
